
<svg xmlns="http://www.w3.org/2000/svg" xmlns:xlink="http://www.w3.org/1999/xlink" viewBox="0 0 24 24"><defs><style>.cls-1{fill:url(#New_Gradient_Swatch);}.cls-2{fill:#fff;}</style><linearGradient id="New_Gradient_Swatch" x1="12" y1="0.15" x2="12" y2="24.15" gradientUnits="userSpaceOnUse"><stop offset="0" stop-color="#2d4eff"/><stop offset="1" stop-color="#2689ff"/></linearGradient></defs><title>Asset 1</title><g id="Layer_2" data-name="Layer 2"><g id="Layer_1-2" data-name="Layer 1"><circle class="cls-1" cx="12" cy="12.15" r="12"/><path class="cls-2" d="M15.71,13.36c0-1.71-1-2.29-3-2.57-1.45-.24-1.73-.58-1.73-1.27s.47-1.1,1.39-1.1a1.4,1.4,0,0,1,1.49,1h2.51a3.62,3.62,0,0,0-4-3.38v-2H10.83v2A3.53,3.53,0,0,0,7.54,9.57c0,1.91,1.15,2.49,3.1,2.78,1.39.24,1.61.55,1.61,1.16,0,.65-.61,1.12-1.45,1.12a1.91,1.91,0,0,1-1.83-1.2H6.31a3.77,3.77,0,0,0,4.52,3.51v2h1.58v-2A3.64,3.64,0,0,0,15.71,13.36Z"/></g></g></svg>
